<?xml version="1.0" encoding="UTF-8" standalone="no"?>
<!-- Created with Inkscape (http://www.inkscape.org/) -->

<svg
   width="121.13229mm"
   height="108.23779mm"
   viewBox="0 0 121.1323 108.23779"
   version="1.1"
   id="svg1"
   xml:space="preserve"
   sodipodi:docname="wavefront-central-logo.svg"
   inkscape:version="1.3.2 (1:1.3.2+202311252150+091e20ef0f)"
   xmlns:inkscape="http://www.inkscape.org/namespaces/inkscape"
   xmlns:sodipodi="http://sodipodi.sourceforge.net/DTD/sodipodi-0.dtd"
   xmlns="http://www.w3.org/2000/svg"
   xmlns:svg="http://www.w3.org/2000/svg"><sodipodi:namedview
     id="namedview1"
     pagecolor="#ffffff"
     bordercolor="#000000"
     borderopacity="0.25"
     inkscape:showpageshadow="2"
     inkscape:pageopacity="0.0"
     inkscape:pagecheckerboard="0"
     inkscape:deskcolor="#d1d1d1"
     inkscape:document-units="mm"
     inkscape:zoom="1.3105506"
     inkscape:cx="228.91142"
     inkscape:cy="204.87572"
     inkscape:window-width="1704"
     inkscape:window-height="1006"
     inkscape:window-x="0"
     inkscape:window-y="0"
     inkscape:window-maximized="1"
     inkscape:current-layer="layer1" /><defs
     id="defs1"><rect
       x="135.99615"
       y="261.60791"
       width="641.05365"
       height="269.60117"
       id="rect2" /></defs><g
     id="layer1"
     transform="translate(-51.223974,-2.8016288)"><path
       style="font-size:96px;font-family:Raleway;-inkscape-font-specification:Raleway;white-space:pre;fill:#120073"
       d="m 170.17209,282.79284 h 6.336 l 9.6,24.192 9.696,-24.192 h 6.432 l -11.904,29.088 13.056,30.816 24.672,-60.384 h 7.296 l -28.896,68.16 h -5.952 l -14.304,-33.696 -14.4,33.696 h -5.856 l -28.8,-68.16 h 7.2 l 24.768,60.384 12.96,-30.816 z m 64.31982,53.28 q 0,-4.704 2.688,-8.064 2.688,-3.456 7.392,-5.28 4.8,-1.92 11.04,-1.92 3.648,0 7.584,0.576 3.936,0.576 7.008,1.728 v -4.224 q 0,-6.336 -3.744,-10.08 -3.744,-3.744 -10.368,-3.744 -4.032,0 -7.968,1.536 -3.84,1.44 -8.064,4.32 l -2.496,-4.608 q 4.896,-3.36 9.6,-4.992 4.704,-1.728 9.6,-1.728 9.216,0 14.592,5.28 5.376,5.28 5.376,14.592 v 23.136 q 0,1.344 0.576,2.016 0.576,0.576 1.824,0.672 v 5.184 q -1.056,0.096 -1.824,0.192 -0.768,0.096 -1.152,0 -2.4,-0.096 -3.648,-1.536 -1.248,-1.44 -1.344,-3.072 l -0.096,-3.648 q -3.36,4.32 -8.736,6.72 -5.376,2.304 -10.944,2.304 -4.8,0 -8.736,-2.016 -3.84,-2.112 -6.048,-5.568 -2.112,-3.552 -2.112,-7.776 z m 33.504,3.84 q 1.056,-1.344 1.632,-2.592 0.576,-1.248 0.576,-2.208 v -7.296 q -3.264,-1.248 -6.816,-1.92 -3.456,-0.672 -7.008,-0.672 -7.008,0 -11.328,2.784 -4.32,2.784 -4.32,7.584 0,2.784 1.44,5.28 1.44,2.4 4.224,4.032 2.784,1.536 6.528,1.536 4.704,0 8.736,-1.824 4.128,-1.824 6.336,-4.704 z m 36.19176,10.56 -20.256,-50.016 h 6.816 l 17.088,43.488 17.184,-43.488 h 6.432 l -20.256,50.016 z m 56.15975,0.96 q -5.376,0 -9.984,-2.016 -4.608,-2.112 -7.968,-5.664 -3.36,-3.648 -5.28,-8.352 -1.824,-4.704 -1.824,-10.08 0,-7.008 3.168,-12.864 3.264,-5.856 8.928,-9.312 5.664,-3.552 12.864,-3.552 7.392,0 12.864,3.552 5.568,3.552 8.736,9.408 3.168,5.76 3.168,12.672 0,0.768 0,1.536 0,0.672 -0.096,1.056 h -42.816 q 0.48,5.376 2.976,9.6 2.592,4.128 6.624,6.624 4.128,2.4 8.928,2.4 4.896,0 9.216,-2.496 4.416,-2.496 6.144,-6.528 l 5.664,1.536 q -1.536,3.552 -4.704,6.432 -3.168,2.88 -7.488,4.512 -4.224,1.536 -9.12,1.536 z m -18.432,-28.32 h 36.96 q -0.384,-5.472 -2.976,-9.6 -2.496,-4.128 -6.624,-6.432 -4.032,-2.4 -8.928,-2.4 -4.896,0 -8.928,2.4 -4.032,2.304 -6.624,6.528 -2.496,4.128 -2.88,9.504 z m 55.00794,27.36 v -44.832 h -6.912 v -5.184 h 6.912 v -1.344 q 0,-6.144 1.728,-10.56 1.824,-4.416 5.088,-6.72 3.36,-2.4 7.872,-2.4 2.976,0 5.76,0.864 2.784,0.864 4.8,2.304 l -2.016,4.704 q -1.248,-1.056 -3.264,-1.632 -2.016,-0.576 -4.032,-0.576 -4.512,0 -7.008,3.552 -2.4,3.552 -2.4,10.272 v 1.536 h 13.824 v 5.184 h -13.824 v 44.832 z m 54.24,-44.256 q -6.528,0.192 -11.52,3.648 -4.896,3.456 -6.912,9.504 v 31.104 h -6.528 v -50.016 h 6.144 v 12 q 2.592,-5.28 6.816,-8.544 4.32,-3.264 9.12,-3.648 0.96,-0.096 1.632,-0.096 0.768,0 1.248,0.096 z m 28.51191,45.216 q -5.376,0 -9.984,-2.016 -4.512,-2.112 -7.872,-5.664 -3.264,-3.648 -5.088,-8.256 -1.824,-4.704 -1.824,-9.888 0,-5.376 1.824,-9.984 1.824,-4.704 5.184,-8.256 3.36,-3.648 7.872,-5.664 4.608,-2.112 9.984,-2.112 5.376,0 9.888,2.112 4.512,2.016 7.872,5.664 3.36,3.552 5.184,8.256 1.824,4.608 1.824,9.984 0,5.184 -1.824,9.888 -1.824,4.608 -5.184,8.256 -3.264,3.552 -7.872,5.664 -4.512,2.016 -9.984,2.016 z m -18.144,-25.728 q 0,5.568 2.4,10.176 2.496,4.512 6.624,7.2 4.128,2.592 9.12,2.592 4.992,0 9.12,-2.688 4.128,-2.688 6.624,-7.296 2.496,-4.704 2.496,-10.176 0,-5.568 -2.496,-10.176 -2.496,-4.608 -6.624,-7.296 -4.128,-2.688 -9.12,-2.688 -4.992,0 -9.12,2.784 -4.032,2.784 -6.528,7.392 -2.496,4.512 -2.496,10.176 z m 95.99993,24.768 h -6.528 v -27.936 q 0,-8.832 -2.592,-12.864 -2.592,-4.128 -8.16,-4.128 -3.84,0 -7.584,1.92 -3.744,1.824 -6.624,5.088 -2.784,3.168 -4.032,7.296 v 30.624 h -6.528 v -50.016 h 5.952 v 11.328 q 2.016,-3.648 5.28,-6.336 3.264,-2.784 7.392,-4.32 4.128,-1.536 8.544,-1.536 4.128,0 7.008,1.536 2.88,1.536 4.608,4.416 1.728,2.784 2.496,6.816 0.768,3.936 0.768,8.832 z m 37.43974,-2.4 q -0.768,0.288 -2.4,1.056 -1.632,0.768 -3.936,1.344 -2.304,0.576 -4.992,0.576 -2.784,0 -5.28,-1.056 -2.4,-1.056 -3.84,-3.168 -1.44,-2.208 -1.44,-5.376 v -35.808 h -6.912 v -5.184 h 6.912 v -16.896 h 6.528 v 16.896 h 11.52 v 5.184 h -11.52 v 33.984 q 0.192,2.688 1.92,4.032 1.824,1.344 4.128,1.344 2.688,0 4.896,-0.864 2.208,-0.96 2.688,-1.344 z"
       id="text2"
       transform="matrix(0.26458333,0,0,0.26458333,14.936875,18.056141)"
       aria-label="Wavefront" /><path
       style="fill:#120073;fill-opacity:1;stroke-width:0.387856"
       d="m 106.60188,77.642414 c -0.29432,-0.02671 -0.66973,-0.125715 -0.96154,-0.253403 -0.22243,-0.09728 -22.322636,-12.373834 -22.552807,-12.527884 -0.788091,-0.52752 -1.293899,-1.4017 -1.35643,-2.344336 -0.07447,-1.122242 0.423323,-2.16315 1.333111,-2.787572 0.08141,-0.0558 4.503642,-2.87303 9.8274,-6.260489 l 9.679576,-6.159049 0.0749,0.04278 0.0749,0.04278 v 3.596287 3.596265 l -5.900628,3.754939 c -4.702612,2.992577 -5.895093,3.760019 -5.873402,3.779842 0.0152,0.01302 2.866386,1.601214 6.33646,3.52785 3.4701,1.926637 6.34892,3.525919 6.39745,3.553993 l 0.0882,0.05102 -6.9e-4,-11.214377 -7.5e-4,-11.21435 -10.360761,-6.591797 -10.360761,-6.591789 -0.0043,3.298757 c -0.0022,1.81432 -0.0022,4.777022 0,6.583785 l 0.0043,3.28502 4.675582,-2.975382 c 2.571556,-1.636452 4.686263,-2.97538 4.699334,-2.97538 0.01302,0 1.319518,0.824195 2.903232,1.831537 2.187531,1.391407 2.873638,1.837311 2.855162,1.855527 -0.05211,0.05124 -16.698372,10.631818 -16.835942,10.701057 -0.530386,0.267039 -1.108301,0.382093 -1.665503,0.331591 -0.779427,-0.07056 -1.398574,-0.359014 -1.946372,-0.906553 -0.531278,-0.531017 -0.82524,-1.150423 -0.900452,-1.897346 -0.03019,-0.300368 -0.03019,-24.797261 0,-25.097635 0.07512,-0.746924 0.369174,-1.36633 0.900452,-1.897346 0.355059,-0.354897 0.704714,-0.57955 1.142933,-0.73436 0.822633,-0.290605 1.685804,-0.234876 2.468942,0.159412 0.176956,0.08904 27.186724,17.271982 27.403554,17.43339 0.55523,0.413337 0.96235,1.013788 1.1436,1.686673 0.11161,0.414421 0.10441,-0.662745 0.10441,15.510993 1.1e-4,13.38821 -0.002,14.962804 -0.0321,15.156934 -0.10052,0.676987 -0.40445,1.276419 -0.8925,1.760298 -0.64568,0.640186 -1.56369,0.970515 -2.46862,0.888292 z m 9.74406,-0.0087 c -0.36771,-0.04515 -0.67379,-0.137438 -1.02735,-0.309594 -0.85598,-0.417159 -1.44981,-1.181103 -1.67538,-2.155311 l -0.0468,-0.201272 -0.007,-15.005185 c -0.004,-11.202719 -3.9e-4,-15.055168 0.0174,-15.202354 0.0654,-0.540526 0.27106,-1.056193 0.5961,-1.494302 0.13636,-0.183904 0.42116,-0.472785 0.59621,-0.604968 0.20213,-0.152638 27.23239,-17.347876 27.43687,-17.453887 0.73925,-0.3833 1.60197,-0.449614 2.39941,-0.184425 0.44989,0.149619 0.82162,0.374101 1.16458,0.703284 0.55,0.527897 0.87291,1.191523 0.94917,1.950718 0.0302,0.300155 0.0302,24.797487 0,25.097637 -0.0762,0.759191 -0.39917,1.422826 -0.94917,1.950716 -0.95375,0.915453 -2.36557,1.124694 -3.55319,0.52663 -0.1357,-0.06818 -16.793,-10.655396 -16.84556,-10.706701 -0.0173,-0.01738 0.70244,-0.485291 2.84812,-1.849733 1.57962,-1.004496 2.88858,-1.828366 2.90877,-1.830799 0.0196,-0.0022 2.13805,1.333719 4.70636,2.969238 l 4.66966,2.973709 0.007,-3.297809 c 0.002,-1.813798 0.002,-4.77563 0,-6.581868 l -0.007,-3.284063 -10.36043,6.590834 -10.36044,6.590819 -0.007,9.619505 c -0.004,5.290732 -9.8e-4,10.335271 0.004,11.210123 l 0.0108,1.590573 6.41197,-3.56222 c 3.52656,-1.959227 6.40941,-3.571557 6.40632,-3.582999 -0.002,-0.01085 -2.65499,-1.706691 -5.89313,-3.767357 l -5.88747,-3.74658 -0.004,-3.58997 -0.004,-3.589968 0.0768,-0.04972 c 0.0708,-0.04582 0.081,-0.04733 0.12939,-0.01954 0.1318,0.07686 19.32926,12.299252 19.45985,12.389314 0.77995,0.537856 1.27159,1.397509 1.33358,2.331787 0.0615,0.924595 -0.25666,1.780644 -0.9014,2.426389 -0.10354,0.103783 -0.2698,0.246455 -0.3694,0.31715 -0.20864,0.148295 -22.41794,12.493925 -22.66109,12.596928 -0.20518,0.08685 -0.45498,0.161974 -0.67946,0.204095 -0.21539,0.04038 -0.68109,0.05645 -0.89245,0.03084 z m -5.31923,-30.698135 c -0.009,-2.536709 -0.002,-2.395708 -0.11832,-2.842742 -0.13006,-0.50177 -0.3833,-1.03244 -0.68542,-1.436462 -0.12745,-0.170441 -0.14222,-0.147208 0.19759,-0.313416 0.46828,-0.228998 0.81012,-0.30738 1.34899,-0.309225 0.56063,-0.002 0.91857,0.07751 1.39055,0.308966 0.33931,0.166315 0.32597,0.148077 0.21385,0.293852 -0.30836,0.40109 -0.56759,0.939141 -0.70164,1.456285 -0.11595,0.447034 -0.11009,0.306033 -0.11834,2.842742 -0.004,1.292725 -0.0108,2.350393 -0.0174,2.350393 -0.004,0 -0.165,-0.09945 -0.35581,-0.220835 -0.19086,-0.121371 -0.36147,-0.22444 -0.37938,-0.228803 -0.0174,-0.0043 -0.19412,0.09509 -0.39136,0.220836 -0.19738,0.12593 -0.36279,0.228802 -0.36764,0.228802 -0.004,0 -0.013,-1.057668 -0.0174,-2.350393 z m -7.97376,-9.168846 c -1.57525,-1.003729 -2.86406,-1.834201 -2.86406,-1.845492 0,-0.03149 2.37887,-1.537357 2.40518,-1.52257 0.013,0.0065 1.31502,0.834575 2.89411,1.838788 2.31713,1.473583 2.86571,1.830749 2.84329,1.851179 -0.062,0.05667 -2.3598,1.505138 -2.38606,1.504138 -0.0151,-7.81e-4 -1.31723,-0.822306 -2.89246,-1.826043 z m 13.37598,1.07721 c -0.64491,-0.411187 -1.18011,-0.754869 -1.18926,-0.763706 -0.013,-0.01302 2.56163,-1.661633 5.72637,-3.668865 0.0403,-0.02561 0.13505,0.03019 1.23484,0.730226 0.65507,0.416897 1.19373,0.766094 1.19701,0.775953 0.007,0.02171 -5.73133,3.676788 -5.76968,3.675161 -0.0152,-7.81e-4 -0.55434,-0.337583 -1.19928,-0.748769 z m -5.03631,-0.432899 c -0.36017,-0.0508 -0.74294,-0.17435 -1.05499,-0.340643 -0.1687,-0.08989 -27.080415,-17.208228 -27.316885,-17.376072 -0.749788,-0.53217 -1.229021,-1.387148 -1.289642,-2.300757 -0.07512,-1.132778 0.433508,-2.183136 1.35643,-2.800911 0.230171,-0.154069 22.330377,-12.4305451 22.552807,-12.5278833 0.64253,-0.2811978 1.34685,-0.3381595 2.02001,-0.1633626 0.27762,0.072085 0.42731,0.1302952 0.68783,0.2674387 0.80703,0.4248564 1.37254,1.1771746 1.58938,2.1144036 l 0.0468,0.2012726 0.007,11.88632 0.007,11.88632 -0.24399,-0.154809 c -0.13418,-0.08513 -1.53284,-0.975092 -3.10806,-1.977653 l -2.86407,-1.822842 -0.0108,-7.047491 -0.0108,-7.047492 -6.400274,3.555698 c -3.520142,1.955635 -6.408609,3.564034 -6.418792,3.57422 -0.02279,0.02286 20.791506,13.274932 20.850886,13.275524 0.0597,7.77e-4 20.87493,-13.251473 20.85137,-13.275015 -0.0108,-0.01038 -2.89914,-1.619094 -6.41927,-3.574729 l -6.40029,-3.555698 -0.0108,7.048399 -0.0108,7.048402 -3.00936,1.915767 c -1.65512,1.05367 -3.05377,1.943423 -3.10806,1.977217 l -0.0988,0.06146 0.007,-11.886793 0.007,-11.8867895 0.0466,-0.2012724 c 0.18196,-0.7865443 0.62535,-1.4664676 1.2403,-1.902134 0.21624,-0.1531152 0.61192,-0.3519577 0.85013,-0.4270591 0.73738,-0.2324898 1.48118,-0.1987538 2.18416,0.099056 0.24292,0.1029182 22.45258,12.448836 22.65927,12.595854 0.72992,0.519209 1.21614,1.39657 1.27374,2.298399 0.0726,1.139201 -0.44395,2.186922 -1.38869,2.815967 -0.0856,0.05701 -6.20754,3.955167 -13.60428,8.662593 -7.63203,4.857164 -13.54738,8.608797 -13.67694,8.674216 -0.44136,0.222833 -0.80224,0.310961 -1.31789,0.321775 -0.18824,0.0043 -0.40002,-7.82e-4 -0.47042,-0.01086 z"
       id="path1" /></g></svg>
